<mxfile host="app.diagrams.net" modified="2023-12-13T13:40:19.638Z" agent="Mozilla/5.0 (Windows NT 10.0; Win64; x64) AppleWebKit/537.36 (KHTML, like Gecko) Chrome/119.0.0.0 Safari/537.36 OPR/105.0.0.0 (Edition Yx 05)" etag="QOhsB1MP_T4NgWVXJsqI" version="22.1.8" type="device">
  <diagram name="Страница — 1" id="NvRoyg4e2Ao4gLtiRm53">
    <mxGraphModel dx="1380" dy="783" grid="1" gridSize="10" guides="1" tooltips="1" connect="1" arrows="1" fold="1" page="1" pageScale="1" pageWidth="827" pageHeight="1169" math="0" shadow="0">
      <root>
        <mxCell id="0" />
        <mxCell id="1" parent="0" />
        <mxCell id="x2ACNJGifl7POWTYEtrk-2" value="Управление роботом-пылесосом" style="ellipse;whiteSpace=wrap;html=1;" parent="1" vertex="1">
          <mxGeometry x="160" y="105" width="120" height="80" as="geometry" />
        </mxCell>
        <mxCell id="x2ACNJGifl7POWTYEtrk-3" value="Мониторинг и уведомления" style="ellipse;whiteSpace=wrap;html=1;" parent="1" vertex="1">
          <mxGeometry x="160" y="390" width="120" height="80" as="geometry" />
        </mxCell>
        <mxCell id="x2ACNJGifl7POWTYEtrk-4" value="Управление зонами уборки" style="ellipse;whiteSpace=wrap;html=1;" parent="1" vertex="1">
          <mxGeometry x="160" y="545" width="120" height="80" as="geometry" />
        </mxCell>
        <mxCell id="x2ACNJGifl7POWTYEtrk-6" value="Запустить уборку" style="ellipse;whiteSpace=wrap;html=1;" parent="1" vertex="1">
          <mxGeometry x="354" y="60" width="120" height="50" as="geometry" />
        </mxCell>
        <mxCell id="x2ACNJGifl7POWTYEtrk-7" value="Остановить уборку" style="ellipse;whiteSpace=wrap;html=1;" parent="1" vertex="1">
          <mxGeometry x="354" y="120" width="120" height="50" as="geometry" />
        </mxCell>
        <mxCell id="x2ACNJGifl7POWTYEtrk-8" value="Запланировать расписание уборки" style="ellipse;whiteSpace=wrap;html=1;" parent="1" vertex="1">
          <mxGeometry x="354" y="180" width="120" height="50" as="geometry" />
        </mxCell>
        <mxCell id="x2ACNJGifl7POWTYEtrk-9" value="Изменить режимы уборки&amp;nbsp;" style="ellipse;whiteSpace=wrap;html=1;" parent="1" vertex="1">
          <mxGeometry x="354" y="240" width="120" height="50" as="geometry" />
        </mxCell>
        <mxCell id="x2ACNJGifl7POWTYEtrk-11" value="Use" style="endArrow=open;endSize=12;dashed=1;html=1;rounded=0;edgeStyle=orthogonalEdgeStyle;exitX=0.5;exitY=0;exitDx=0;exitDy=0;entryX=0;entryY=0.5;entryDx=0;entryDy=0;" parent="1" source="x2ACNJGifl7POWTYEtrk-2" target="x2ACNJGifl7POWTYEtrk-6" edge="1">
          <mxGeometry width="160" relative="1" as="geometry">
            <mxPoint x="190" y="84.5" as="sourcePoint" />
            <mxPoint x="310" y="20" as="targetPoint" />
          </mxGeometry>
        </mxCell>
        <mxCell id="x2ACNJGifl7POWTYEtrk-12" value="Use" style="endArrow=open;endSize=12;dashed=1;html=1;rounded=0;edgeStyle=orthogonalEdgeStyle;exitX=1;exitY=0.5;exitDx=0;exitDy=0;entryX=0;entryY=0.5;entryDx=0;entryDy=0;" parent="1" source="x2ACNJGifl7POWTYEtrk-2" target="x2ACNJGifl7POWTYEtrk-7" edge="1">
          <mxGeometry width="160" relative="1" as="geometry">
            <mxPoint x="280" y="115" as="sourcePoint" />
            <mxPoint x="364" y="95" as="targetPoint" />
          </mxGeometry>
        </mxCell>
        <mxCell id="x2ACNJGifl7POWTYEtrk-13" value="Use" style="endArrow=open;endSize=12;dashed=1;html=1;rounded=0;edgeStyle=orthogonalEdgeStyle;exitX=0.767;exitY=0.913;exitDx=0;exitDy=0;entryX=0;entryY=0.5;entryDx=0;entryDy=0;exitPerimeter=0;" parent="1" source="x2ACNJGifl7POWTYEtrk-2" target="x2ACNJGifl7POWTYEtrk-8" edge="1">
          <mxGeometry width="160" relative="1" as="geometry">
            <mxPoint x="290" y="155" as="sourcePoint" />
            <mxPoint x="364" y="155" as="targetPoint" />
          </mxGeometry>
        </mxCell>
        <mxCell id="x2ACNJGifl7POWTYEtrk-14" value="Use" style="endArrow=open;endSize=12;dashed=1;html=1;rounded=0;edgeStyle=orthogonalEdgeStyle;exitX=0.417;exitY=1.063;exitDx=0;exitDy=0;entryX=0;entryY=0.5;entryDx=0;entryDy=0;exitPerimeter=0;" parent="1" source="x2ACNJGifl7POWTYEtrk-2" target="x2ACNJGifl7POWTYEtrk-9" edge="1">
          <mxGeometry width="160" relative="1" as="geometry">
            <mxPoint x="300" y="165" as="sourcePoint" />
            <mxPoint x="374" y="165" as="targetPoint" />
            <Array as="points">
              <mxPoint x="260" y="190" />
              <mxPoint x="260" y="265" />
            </Array>
          </mxGeometry>
        </mxCell>
        <mxCell id="x2ACNJGifl7POWTYEtrk-18" value="Отправка уведомления пользователю о статусе уборки" style="ellipse;whiteSpace=wrap;html=1;" parent="1" vertex="1">
          <mxGeometry x="354" y="320" width="166" height="90" as="geometry" />
        </mxCell>
        <mxCell id="x2ACNJGifl7POWTYEtrk-19" value="&amp;nbsp;Просмотр статистики уборки" style="ellipse;whiteSpace=wrap;html=1;" parent="1" vertex="1">
          <mxGeometry x="354" y="420" width="170" height="70" as="geometry" />
        </mxCell>
        <mxCell id="x2ACNJGifl7POWTYEtrk-20" value="Use" style="endArrow=open;endSize=12;dashed=1;html=1;rounded=0;edgeStyle=orthogonalEdgeStyle;exitX=0.417;exitY=1.063;exitDx=0;exitDy=0;exitPerimeter=0;entryX=0.5;entryY=1;entryDx=0;entryDy=0;" parent="1" target="x2ACNJGifl7POWTYEtrk-19" edge="1">
          <mxGeometry width="160" relative="1" as="geometry">
            <mxPoint x="216" y="470" as="sourcePoint" />
            <mxPoint x="510" y="510" as="targetPoint" />
            <Array as="points">
              <mxPoint x="220" y="470" />
              <mxPoint x="220" y="520" />
              <mxPoint x="438" y="520" />
            </Array>
          </mxGeometry>
        </mxCell>
        <mxCell id="x2ACNJGifl7POWTYEtrk-21" value="Use" style="endArrow=open;endSize=12;dashed=1;html=1;rounded=0;edgeStyle=orthogonalEdgeStyle;exitX=0.5;exitY=0;exitDx=0;exitDy=0;" parent="1" source="x2ACNJGifl7POWTYEtrk-3" edge="1">
          <mxGeometry width="160" relative="1" as="geometry">
            <mxPoint x="200" y="290" as="sourcePoint" />
            <mxPoint x="350" y="360" as="targetPoint" />
            <Array as="points">
              <mxPoint x="220" y="360" />
            </Array>
          </mxGeometry>
        </mxCell>
        <mxCell id="x2ACNJGifl7POWTYEtrk-22" value="&amp;nbsp;Настройка зоны уборки" style="ellipse;whiteSpace=wrap;html=1;" parent="1" vertex="1">
          <mxGeometry x="370" y="545" width="120" height="80" as="geometry" />
        </mxCell>
        <mxCell id="x2ACNJGifl7POWTYEtrk-23" value="Use" style="endArrow=open;endSize=12;dashed=1;html=1;rounded=0;edgeStyle=orthogonalEdgeStyle;exitX=1;exitY=0.5;exitDx=0;exitDy=0;" parent="1" source="x2ACNJGifl7POWTYEtrk-4" edge="1">
          <mxGeometry width="160" relative="1" as="geometry">
            <mxPoint x="226" y="440" as="sourcePoint" />
            <mxPoint x="370" y="580" as="targetPoint" />
            <Array as="points">
              <mxPoint x="280" y="580" />
            </Array>
          </mxGeometry>
        </mxCell>
        <mxCell id="x2ACNJGifl7POWTYEtrk-30" value="" style="edgeStyle=none;orthogonalLoop=1;jettySize=auto;html=1;rounded=0;entryX=0;entryY=1;entryDx=0;entryDy=0;" parent="1" target="x2ACNJGifl7POWTYEtrk-2" edge="1">
          <mxGeometry width="80" relative="1" as="geometry">
            <mxPoint x="50" y="380" as="sourcePoint" />
            <mxPoint x="160" y="280" as="targetPoint" />
            <Array as="points" />
          </mxGeometry>
        </mxCell>
        <mxCell id="x2ACNJGifl7POWTYEtrk-31" value="" style="edgeStyle=none;orthogonalLoop=1;jettySize=auto;html=1;rounded=0;" parent="1" edge="1">
          <mxGeometry width="80" relative="1" as="geometry">
            <mxPoint x="80" y="429.73" as="sourcePoint" />
            <mxPoint x="160" y="429.73" as="targetPoint" />
            <Array as="points" />
          </mxGeometry>
        </mxCell>
        <mxCell id="x2ACNJGifl7POWTYEtrk-32" value="" style="edgeStyle=none;orthogonalLoop=1;jettySize=auto;html=1;rounded=0;entryX=0;entryY=0.5;entryDx=0;entryDy=0;" parent="1" target="x2ACNJGifl7POWTYEtrk-4" edge="1">
          <mxGeometry width="80" relative="1" as="geometry">
            <mxPoint x="50" y="500" as="sourcePoint" />
            <mxPoint x="120" y="490" as="targetPoint" />
            <Array as="points" />
          </mxGeometry>
        </mxCell>
        <mxCell id="x2ACNJGifl7POWTYEtrk-33" value="Пользователь" style="shape=umlActor;verticalLabelPosition=bottom;verticalAlign=top;html=1;outlineConnect=0;" parent="1" vertex="1">
          <mxGeometry x="30" y="400" width="30" height="60" as="geometry" />
        </mxCell>
      </root>
    </mxGraphModel>
  </diagram>
</mxfile>
